<svg width="273" height="40" viewBox="0 0 273 40" fill="none" xmlns="http://www.w3.org/2000/svg">
  <g clip-path="url(#clip0)">
    <g clip-path="url(#clip1)">
      <rect x="12" width="50" height="20" fill="#C21818"/>
      <rect x="62" width="50" height="20" fill="#F48722"/>
      <rect x="112" width="50" height="20" fill="#F0DB20"/>
      <path d="M162 0H212V20H162V0Z" fill="#86C03B"/>
      <rect x="212" width="50" height="20" fill="#0D760D"/>
      <path d="M12 0H14V25C14 25.5523 13.5523 26 13 26V26C12.4477 26 12 25.5523 12 25V0Z" fill="black"/>
      <path d="M259 0H261V25C261 25.5523 260.552 26 260 26V26C259.448 26 259 25.5523 259 25V0Z" fill="black"/>
      <path d="M211 0H213V25C213 25.5523 212.552 26 212 26V26C211.448 26 211 25.5523 211 25V0Z" fill="black"/>
      <path d="M161 0H163V25C163 25.5523 162.552 26 162 26V26C161.448 26 161 25.5523 161 25V0Z" fill="black"/>
      <path d="M111 0H113V25C113 25.5523 112.552 26 112 26V26C111.448 26 111 25.5523 111 25V0Z" fill="black"/>
      <path d="M61 0H63V25C63 25.5523 62.5523 26 62 26V26C61.4477 26 61 25.5523 61 25V0Z" fill="black"/>
    </g>
    <path
        d="M250.983 39H249.712V30.5713L247.162 31.5078V30.3594L250.785 28.999H250.983V39ZM260.93 34.7549C260.93 36.236 260.677 37.3366 260.171 38.0566C259.665 38.7767 258.874 39.1367 257.799 39.1367C256.737 39.1367 255.951 38.7858 255.44 38.084C254.93 37.3776 254.666 36.3249 254.647 34.9258V33.2373C254.647 31.7744 254.9 30.6875 255.406 29.9766C255.912 29.2656 256.705 28.9102 257.785 28.9102C258.856 28.9102 259.645 29.2542 260.15 29.9424C260.656 30.626 260.916 31.6833 260.93 33.1143V34.7549ZM259.665 33.0254C259.665 31.9544 259.515 31.1751 259.214 30.6875C258.913 30.1953 258.437 29.9492 257.785 29.9492C257.138 29.9492 256.666 30.193 256.37 30.6807C256.074 31.1683 255.921 31.918 255.912 32.9297V34.9531C255.912 36.0286 256.067 36.8239 256.377 37.3389C256.691 37.8493 257.165 38.1045 257.799 38.1045C258.423 38.1045 258.886 37.863 259.187 37.3799C259.492 36.8968 259.651 36.1357 259.665 35.0967V33.0254ZM268.791 34.7549C268.791 36.236 268.538 37.3366 268.032 38.0566C267.526 38.7767 266.736 39.1367 265.66 39.1367C264.598 39.1367 263.812 38.7858 263.302 38.084C262.791 37.3776 262.527 36.3249 262.509 34.9258V33.2373C262.509 31.7744 262.762 30.6875 263.268 29.9766C263.773 29.2656 264.566 28.9102 265.646 28.9102C266.717 28.9102 267.506 29.2542 268.012 29.9424C268.518 30.626 268.777 31.6833 268.791 33.1143V34.7549ZM267.526 33.0254C267.526 31.9544 267.376 31.1751 267.075 30.6875C266.774 30.1953 266.298 29.9492 265.646 29.9492C264.999 29.9492 264.528 30.193 264.231 30.6807C263.935 31.1683 263.783 31.918 263.773 32.9297V34.9531C263.773 36.0286 263.928 36.8239 264.238 37.3389C264.553 37.8493 265.027 38.1045 265.66 38.1045C266.285 38.1045 266.747 37.863 267.048 37.3799C267.353 36.8968 267.513 36.1357 267.526 35.0967V33.0254Z"
        fill="black"/>
    <path
        d="M209.863 31.6445C209.863 32.1413 209.731 32.5833 209.467 32.9707C209.207 33.3581 208.854 33.6611 208.407 33.8799C208.927 34.1032 209.337 34.429 209.638 34.8574C209.943 35.2858 210.096 35.7712 210.096 36.3135C210.096 37.1748 209.804 37.8607 209.221 38.3711C208.642 38.8815 207.879 39.1367 206.931 39.1367C205.974 39.1367 205.206 38.8815 204.627 38.3711C204.053 37.8561 203.766 37.1702 203.766 36.3135C203.766 35.7757 203.911 35.2904 204.203 34.8574C204.499 34.4245 204.907 34.0964 205.427 33.873C204.985 33.6543 204.636 33.3512 204.381 32.9639C204.126 32.5765 203.998 32.1367 203.998 31.6445C203.998 30.806 204.267 30.1406 204.805 29.6484C205.342 29.1562 206.051 28.9102 206.931 28.9102C207.806 28.9102 208.512 29.1562 209.05 29.6484C209.592 30.1406 209.863 30.806 209.863 31.6445ZM208.831 36.2861C208.831 35.7301 208.653 35.2767 208.298 34.9258C207.947 34.5749 207.487 34.3994 206.917 34.3994C206.347 34.3994 205.889 34.5726 205.543 34.9189C205.201 35.2653 205.03 35.721 205.03 36.2861C205.03 36.8512 205.197 37.2956 205.529 37.6191C205.867 37.9427 206.334 38.1045 206.931 38.1045C207.523 38.1045 207.988 37.9427 208.325 37.6191C208.662 37.291 208.831 36.8467 208.831 36.2861ZM206.931 29.9492C206.434 29.9492 206.031 30.1042 205.721 30.4141C205.415 30.7194 205.263 31.1364 205.263 31.665C205.263 32.1709 205.413 32.5811 205.714 32.8955C206.019 33.2054 206.425 33.3604 206.931 33.3604C207.437 33.3604 207.84 33.2054 208.141 32.8955C208.446 32.5811 208.599 32.1709 208.599 31.665C208.599 31.1592 208.441 30.7467 208.127 30.4277C207.812 30.1087 207.414 29.9492 206.931 29.9492ZM217.93 34.7549C217.93 36.236 217.677 37.3366 217.171 38.0566C216.665 38.7767 215.874 39.1367 214.799 39.1367C213.737 39.1367 212.951 38.7858 212.44 38.084C211.93 37.3776 211.666 36.3249 211.647 34.9258V33.2373C211.647 31.7744 211.9 30.6875 212.406 29.9766C212.912 29.2656 213.705 28.9102 214.785 28.9102C215.856 28.9102 216.645 29.2542 217.15 29.9424C217.656 30.626 217.916 31.6833 217.93 33.1143V34.7549ZM216.665 33.0254C216.665 31.9544 216.515 31.1751 216.214 30.6875C215.913 30.1953 215.437 29.9492 214.785 29.9492C214.138 29.9492 213.666 30.193 213.37 30.6807C213.074 31.1683 212.921 31.918 212.912 32.9297V34.9531C212.912 36.0286 213.067 36.8239 213.377 37.3389C213.691 37.8493 214.165 38.1045 214.799 38.1045C215.423 38.1045 215.886 37.863 216.187 37.3799C216.492 36.8968 216.651 36.1357 216.665 35.0967V33.0254Z"
        fill="black"/>
    <path
        d="M157.79 29.04V30.1133H157.558C156.573 30.1315 155.789 30.4232 155.206 30.9883C154.623 31.5534 154.285 32.3486 154.194 33.374C154.718 32.7725 155.434 32.4717 156.341 32.4717C157.207 32.4717 157.897 32.777 158.412 33.3877C158.932 33.9984 159.191 34.7868 159.191 35.7529C159.191 36.7783 158.911 37.5986 158.351 38.2139C157.795 38.8291 157.047 39.1367 156.108 39.1367C155.156 39.1367 154.383 38.7721 153.791 38.043C153.199 37.3092 152.902 36.3659 152.902 35.2129V34.7275C152.902 32.8955 153.292 31.4964 154.071 30.5303C154.855 29.5596 156.02 29.0628 157.564 29.04H157.79ZM156.129 33.5244C155.696 33.5244 155.297 33.6543 154.933 33.9141C154.568 34.1738 154.315 34.4997 154.174 34.8916V35.3564C154.174 36.1768 154.358 36.8376 154.728 37.3389C155.097 37.8402 155.557 38.0908 156.108 38.0908C156.678 38.0908 157.125 37.8812 157.448 37.4619C157.776 37.0426 157.94 36.4935 157.94 35.8145C157.94 35.1309 157.774 34.5794 157.441 34.1602C157.113 33.7363 156.676 33.5244 156.129 33.5244ZM166.93 34.7549C166.93 36.236 166.677 37.3366 166.171 38.0566C165.665 38.7767 164.874 39.1367 163.799 39.1367C162.737 39.1367 161.951 38.7858 161.44 38.084C160.93 37.3776 160.666 36.3249 160.647 34.9258V33.2373C160.647 31.7744 160.9 30.6875 161.406 29.9766C161.912 29.2656 162.705 28.9102 163.785 28.9102C164.856 28.9102 165.645 29.2542 166.15 29.9424C166.656 30.626 166.916 31.6833 166.93 33.1143V34.7549ZM165.665 33.0254C165.665 31.9544 165.515 31.1751 165.214 30.6875C164.913 30.1953 164.437 29.9492 163.785 29.9492C163.138 29.9492 162.666 30.193 162.37 30.6807C162.074 31.1683 161.921 31.918 161.912 32.9297V34.9531C161.912 36.0286 162.067 36.8239 162.377 37.3389C162.691 37.8493 163.165 38.1045 163.799 38.1045C164.423 38.1045 164.886 37.863 165.187 37.3799C165.492 36.8968 165.651 36.1357 165.665 35.0967V33.0254Z"
        fill="black"/>
    <path
        d="M108.166 35.6572H109.547V36.6895H108.166V39H106.895V36.6895H102.362V35.9443L106.819 29.0469H108.166V35.6572ZM103.798 35.6572H106.895V30.7764L106.744 31.0498L103.798 35.6572ZM116.93 34.7549C116.93 36.236 116.677 37.3366 116.171 38.0566C115.665 38.7767 114.874 39.1367 113.799 39.1367C112.737 39.1367 111.951 38.7858 111.44 38.084C110.93 37.3776 110.666 36.3249 110.647 34.9258V33.2373C110.647 31.7744 110.9 30.6875 111.406 29.9766C111.912 29.2656 112.705 28.9102 113.785 28.9102C114.856 28.9102 115.645 29.2542 116.15 29.9424C116.656 30.626 116.916 31.6833 116.93 33.1143V34.7549ZM115.665 33.0254C115.665 31.9544 115.515 31.1751 115.214 30.6875C114.913 30.1953 114.437 29.9492 113.785 29.9492C113.138 29.9492 112.666 30.193 112.37 30.6807C112.074 31.1683 111.921 31.918 111.912 32.9297V34.9531C111.912 36.0286 112.067 36.8239 112.377 37.3389C112.691 37.8493 113.165 38.1045 113.799 38.1045C114.423 38.1045 114.886 37.863 115.187 37.3799C115.492 36.8968 115.651 36.1357 115.665 35.0967V33.0254Z"
        fill="black"/>
    <path
        d="M60.3486 39H53.8271V38.0908L57.2725 34.2627C57.7829 33.6839 58.1338 33.2145 58.3252 32.8545C58.5212 32.4899 58.6191 32.1139 58.6191 31.7266C58.6191 31.207 58.4619 30.7809 58.1475 30.4482C57.833 30.1156 57.4137 29.9492 56.8896 29.9492C56.2607 29.9492 55.7708 30.1292 55.4199 30.4893C55.0736 30.8447 54.9004 31.3415 54.9004 31.9795H53.6357C53.6357 31.0635 53.9297 30.3229 54.5176 29.7578C55.11 29.1927 55.9007 28.9102 56.8896 28.9102C57.8148 28.9102 58.5462 29.154 59.084 29.6416C59.6217 30.1247 59.8906 30.7695 59.8906 31.5762C59.8906 32.556 59.2663 33.7227 58.0176 35.0762L55.3516 37.9678H60.3486V39ZM67.9297 34.7549C67.9297 36.236 67.6768 37.3366 67.1709 38.0566C66.665 38.7767 65.8743 39.1367 64.7988 39.1367C63.737 39.1367 62.9508 38.7858 62.4404 38.084C61.93 37.3776 61.6657 36.3249 61.6475 34.9258V33.2373C61.6475 31.7744 61.9004 30.6875 62.4062 29.9766C62.9121 29.2656 63.7051 28.9102 64.7852 28.9102C65.8561 28.9102 66.6445 29.2542 67.1504 29.9424C67.6562 30.626 67.916 31.6833 67.9297 33.1143V34.7549ZM66.665 33.0254C66.665 31.9544 66.5146 31.1751 66.2139 30.6875C65.9131 30.1953 65.4368 29.9492 64.7852 29.9492C64.138 29.9492 63.6663 30.193 63.3701 30.6807C63.0739 31.1683 62.9212 31.918 62.9121 32.9297V34.9531C62.9121 36.0286 63.0671 36.8239 63.377 37.3389C63.6914 37.8493 64.1654 38.1045 64.7988 38.1045C65.4232 38.1045 65.8857 37.863 66.1865 37.3799C66.4919 36.8968 66.6514 36.1357 66.665 35.0967V33.0254Z"
        fill="black"/>
    <path
        d="M15.0684 34.7549C15.0684 36.236 14.8154 37.3366 14.3096 38.0566C13.8037 38.7767 13.013 39.1367 11.9375 39.1367C10.8757 39.1367 10.0895 38.7858 9.5791 38.084C9.06868 37.3776 8.80436 36.3249 8.78613 34.9258V33.2373C8.78613 31.7744 9.03906 30.6875 9.54492 29.9766C10.0508 29.2656 10.8438 28.9102 11.9238 28.9102C12.9948 28.9102 13.7832 29.2542 14.2891 29.9424C14.7949 30.626 15.0547 31.6833 15.0684 33.1143V34.7549ZM13.8037 33.0254C13.8037 31.9544 13.6533 31.1751 13.3525 30.6875C13.0518 30.1953 12.5755 29.9492 11.9238 29.9492C11.2767 29.9492 10.805 30.193 10.5088 30.6807C10.2126 31.1683 10.0599 31.918 10.0508 32.9297V34.9531C10.0508 36.0286 10.2057 36.8239 10.5156 37.3389C10.8301 37.8493 11.304 38.1045 11.9375 38.1045C12.5618 38.1045 13.0244 37.863 13.3252 37.3799C13.6305 36.8968 13.79 36.1357 13.8037 35.0967V33.0254Z"
        fill="black"/>
  </g>
  <defs>
    <clipPath id="clip0">
      <rect width="273" height="40" fill="white"/>
    </clipPath>
    <clipPath id="clip1">
      <rect width="249" height="26" fill="white" transform="translate(12)"/>
    </clipPath>
  </defs>
</svg>
