<svg width="270" height="243" viewBox="0 0 270 243" fill="none" xmlns="http://www.w3.org/2000/svg">
  <g clip-path="url(#clip0)">
    <path fill-rule="evenodd" clip-rule="evenodd"
          d="M176.289 199.029C202.362 184.512 220 156.672 220 124.713C220 77.7688 181.944 39.713 135 39.713C88.0558 39.713 50 77.7688 50 124.713C50 156.985 67.9849 185.056 94.4787 199.451L75.05 234.713C36.286 213.486 10 172.313 10 125C10 55.965 65.964 0 135 0C204.036 0 260 55.965 260 125C260 172 234.061 212.942 195.717 234.29L176.289 199.029Z"
          fill="#0D760D"/>
    <path fill-rule="evenodd" clip-rule="evenodd"
          d="M260 125C260 55.965 204.036 0 135 0C65.964 0 10 55.965 10 125C10 172.313 36.286 213.486 75.05 234.713L94.4788 199.451C67.985 185.056 50 156.985 50 124.713C50 77.7688 88.0558 39.713 135 39.713C181.944 39.713 220 77.7688 220 124.713C220 124.809 220 124.904 220 125H260Z"
          fill="#86C03B"/>
    <path fill-rule="evenodd" clip-rule="evenodd"
          d="M198.366 17.229C179.786 6.28101 158.126 0 135 0C65.964 0 10 55.965 10 125C10 171.673 35.58 212.372 73.485 233.841L93.5929 198.963C67.5849 184.428 50 156.624 50 124.713C50 77.7688 88.0558 39.713 135 39.713C150.9 39.713 165.78 44.0784 178.507 51.6761L198.366 17.229Z"
          fill="#F0DB20"/>
    <path fill-rule="evenodd" clip-rule="evenodd"
          d="M72.27 16.856C35.034 38.502 10 78.828 10 125C10 171.673 35.58 212.372 73.485 233.841L93.5929 198.963C67.5849 184.428 50 156.624 50 124.713C50 93.5778 66.7402 66.3525 91.711 51.5466L72.27 16.856Z"
          fill="#F48722"/>
    <path fill-rule="evenodd" clip-rule="evenodd"
          d="M50.0005 125H10C10 171.673 35.58 212.372 73.485 233.841L93.5929 198.963C67.6629 184.472 50.1056 156.791 50.0005 125Z"
          fill="#C21818"/>
    <rect y="125" width="50" height="2" rx="1" fill="black"/>
    <rect x="67.7405" y="8" width="50" height="2" rx="1" transform="rotate(60.4863 67.7405 8)" fill="black"/>
    <rect x="203.82" y="8.70001" width="50" height="2" rx="1" transform="rotate(119.789 203.82 8.70001)" fill="black"/>
    <rect x="68.7" y="242.03" width="50" height="2" rx="1" transform="rotate(-61 68.7 242.03)" fill="black"/>
    <rect x="199.8" y="243" width="50" height="2" rx="1" transform="rotate(-118.8 199.8 243)" fill="black"/>
    <rect x="220" y="123" width="50" height="2" rx="1" fill="black"/>
  </g>
  <defs>
    <clipPath id="clip0">
      <rect width="270" height="242.8" fill="white"/>
    </clipPath>
  </defs>
</svg>
