<svg width="334" height="307" viewBox="0 0 334 307" fill="none" xmlns="http://www.w3.org/2000/svg">
  <g clip-path="url(#clip0)">
    <path fill-rule="evenodd" clip-rule="evenodd"
          d="M208.289 231.029C234.362 216.512 252 188.672 252 156.713C252 109.769 213.944 71.713 167 71.713C120.056 71.713 82 109.769 82 156.713C82 188.985 99.9849 217.056 126.479 231.451L107.05 266.713C68.286 245.486 42 204.313 42 157C42 87.965 97.964 32 167 32C236.036 32 292 87.965 292 157C292 204 266.061 244.942 227.717 266.29L208.289 231.029Z"
          fill="#0D760D"/>
    <path fill-rule="evenodd" clip-rule="evenodd"
          d="M292 157C292 87.965 236.036 32 167 32C97.964 32 42 87.965 42 157C42 204.313 68.286 245.486 107.05 266.713L126.479 231.451C99.985 217.056 82 188.985 82 156.713C82 109.769 120.056 71.713 167 71.713C213.944 71.713 252 109.769 252 156.713C252 156.809 252 156.904 252 157H292Z"
          fill="#86C03B"/>
    <path fill-rule="evenodd" clip-rule="evenodd"
          d="M230.366 49.229C211.786 38.281 190.126 32 167 32C97.964 32 42 87.965 42 157C42 203.673 67.58 244.372 105.485 265.841L125.593 230.963C99.5849 216.428 82 188.624 82 156.713C82 109.769 120.056 71.713 167 71.713C182.9 71.713 197.78 76.0784 210.507 83.6761L230.366 49.229Z"
          fill="#F0DB20"/>
    <path fill-rule="evenodd" clip-rule="evenodd"
          d="M104.27 48.856C67.034 70.502 42 110.828 42 157C42 203.673 67.58 244.372 105.485 265.841L125.593 230.963C99.5849 216.428 82 188.624 82 156.713C82 125.578 98.7402 98.3525 123.711 83.5466L104.27 48.856Z"
          fill="#F48722"/>
    <path fill-rule="evenodd" clip-rule="evenodd"
          d="M82.0005 157H42C42 203.673 67.58 244.372 105.485 265.841L125.593 230.963C99.6629 216.472 82.1056 188.791 82.0005 157Z"
          fill="#C21818"/>
    <rect x="32" y="157" width="50" height="2" rx="1" fill="black"/>
    <rect x="99.7405" y="40" width="50" height="2" rx="1" transform="rotate(60.4863 99.7405 40)" fill="black"/>
    <rect x="235.82" y="40.7" width="50" height="2" rx="1" transform="rotate(119.789 235.82 40.7)" fill="black"/>
    <rect x="100.7" y="274.03" width="50" height="2" rx="1" transform="rotate(-61 100.7 274.03)" fill="black"/>
    <rect x="231.8" y="275" width="50" height="2" rx="1" transform="rotate(-118.8 231.8 275)" fill="black"/>
    <rect x="252" y="155" width="50" height="2" rx="1" fill="black"/>
  </g>
  <path
      d="M227.831 294H225.833V280.755L221.826 282.227V280.422L227.52 278.284H227.831V294ZM243.461 287.329C243.461 289.657 243.063 291.386 242.269 292.518C241.474 293.649 240.231 294.215 238.541 294.215C236.872 294.215 235.637 293.663 234.835 292.561C234.033 291.451 233.618 289.796 233.589 287.598V284.944C233.589 282.646 233.986 280.938 234.781 279.82C235.576 278.703 236.822 278.145 238.52 278.145C240.202 278.145 241.441 278.685 242.236 279.767C243.031 280.841 243.439 282.502 243.461 284.751V287.329ZM241.474 284.611C241.474 282.928 241.237 281.704 240.765 280.938C240.292 280.164 239.544 279.777 238.52 279.777C237.503 279.777 236.761 280.16 236.296 280.927C235.83 281.693 235.59 282.871 235.576 284.461V287.641C235.576 289.331 235.82 290.58 236.307 291.39C236.801 292.192 237.546 292.593 238.541 292.593C239.522 292.593 240.249 292.213 240.722 291.454C241.201 290.695 241.452 289.499 241.474 287.866V284.611ZM255.814 287.329C255.814 289.657 255.417 291.386 254.622 292.518C253.827 293.649 252.585 294.215 250.895 294.215C249.226 294.215 247.991 293.663 247.188 292.561C246.386 291.451 245.971 289.796 245.942 287.598V284.944C245.942 282.646 246.34 280.938 247.135 279.82C247.93 278.703 249.176 278.145 250.873 278.145C252.556 278.145 253.795 278.685 254.59 279.767C255.385 280.841 255.793 282.502 255.814 284.751V287.329ZM253.827 284.611C253.827 282.928 253.591 281.704 253.118 280.938C252.646 280.164 251.897 279.777 250.873 279.777C249.856 279.777 249.115 280.16 248.649 280.927C248.184 281.693 247.944 282.871 247.93 284.461V287.641C247.93 289.331 248.173 290.58 248.66 291.39C249.154 292.192 249.899 292.593 250.895 292.593C251.876 292.593 252.603 292.213 253.075 291.454C253.555 290.695 253.806 289.499 253.827 287.866V284.611Z"
      fill="black"/>
  <path
      d="M314.785 153.441C314.785 154.222 314.577 154.917 314.162 155.525C313.754 156.134 313.199 156.61 312.497 156.954C313.313 157.305 313.958 157.817 314.431 158.49C314.91 159.163 315.15 159.926 315.15 160.778C315.15 162.132 314.692 163.21 313.775 164.012C312.866 164.814 311.666 165.215 310.177 165.215C308.673 165.215 307.466 164.814 306.557 164.012C305.654 163.202 305.203 162.125 305.203 160.778C305.203 159.933 305.432 159.171 305.891 158.49C306.356 157.81 306.997 157.294 307.813 156.943C307.119 156.6 306.571 156.123 306.17 155.515C305.769 154.906 305.568 154.215 305.568 153.441C305.568 152.124 305.991 151.078 306.836 150.305C307.681 149.531 308.795 149.145 310.177 149.145C311.552 149.145 312.662 149.531 313.507 150.305C314.359 151.078 314.785 152.124 314.785 153.441ZM313.163 160.735C313.163 159.862 312.884 159.149 312.325 158.598C311.774 158.046 311.05 157.771 310.155 157.771C309.26 157.771 308.54 158.043 307.996 158.587C307.459 159.131 307.19 159.847 307.19 160.735C307.19 161.623 307.452 162.322 307.975 162.83C308.505 163.339 309.239 163.593 310.177 163.593C311.108 163.593 311.838 163.339 312.368 162.83C312.898 162.314 313.163 161.616 313.163 160.735ZM310.177 150.777C309.396 150.777 308.762 151.021 308.275 151.508C307.796 151.988 307.556 152.643 307.556 153.474C307.556 154.269 307.792 154.913 308.265 155.407C308.744 155.894 309.382 156.138 310.177 156.138C310.972 156.138 311.605 155.894 312.078 155.407C312.558 154.913 312.798 154.269 312.798 153.474C312.798 152.679 312.551 152.031 312.057 151.529C311.562 151.028 310.936 150.777 310.177 150.777ZM327.461 158.329C327.461 160.657 327.063 162.386 326.269 163.518C325.474 164.649 324.231 165.215 322.541 165.215C320.872 165.215 319.637 164.663 318.835 163.561C318.033 162.451 317.618 160.796 317.589 158.598V155.944C317.589 153.646 317.986 151.938 318.781 150.82C319.576 149.703 320.822 149.145 322.52 149.145C324.202 149.145 325.441 149.685 326.236 150.767C327.031 151.841 327.439 153.502 327.461 155.751V158.329ZM325.474 155.611C325.474 153.928 325.237 152.704 324.765 151.938C324.292 151.164 323.544 150.777 322.52 150.777C321.503 150.777 320.761 151.16 320.296 151.927C319.83 152.693 319.59 153.871 319.576 155.461V158.641C319.576 160.331 319.82 161.58 320.307 162.39C320.801 163.192 321.546 163.593 322.541 163.593C323.522 163.593 324.249 163.213 324.722 162.454C325.201 161.695 325.452 160.499 325.474 158.866V155.611Z"
      fill="black"/>
  <path
      d="M243.099 19.3486V21.0352H242.733C241.187 21.0638 239.955 21.5221 239.038 22.4102C238.121 23.2982 237.591 24.5479 237.448 26.1592C238.272 25.2139 239.396 24.7412 240.821 24.7412C242.182 24.7412 243.267 25.221 244.076 26.1807C244.893 27.1403 245.301 28.3792 245.301 29.8975C245.301 31.5088 244.86 32.7979 243.979 33.7646C243.106 34.7314 241.931 35.2148 240.456 35.2148C238.959 35.2148 237.745 34.6419 236.814 33.4961C235.883 32.3431 235.418 30.8607 235.418 29.0488V28.2861C235.418 25.4072 236.03 23.2087 237.255 21.6904C238.487 20.165 240.316 19.3844 242.744 19.3486H243.099ZM240.488 26.3955C239.808 26.3955 239.181 26.5996 238.608 27.0078C238.035 27.416 237.638 27.9281 237.416 28.5439V29.2744C237.416 30.5635 237.706 31.6019 238.286 32.3896C238.866 33.1774 239.59 33.5713 240.456 33.5713C241.351 33.5713 242.053 33.2419 242.562 32.583C243.077 31.9242 243.335 31.0612 243.335 29.9941C243.335 28.9199 243.074 28.0534 242.551 27.3945C242.035 26.7285 241.348 26.3955 240.488 26.3955ZM257.461 28.3291C257.461 30.6566 257.063 32.3861 256.269 33.5176C255.474 34.6491 254.231 35.2148 252.541 35.2148C250.872 35.2148 249.637 34.6634 248.835 33.5605C248.033 32.4505 247.618 30.7962 247.589 28.5977V25.9443C247.589 23.6455 247.986 21.9375 248.781 20.8203C249.576 19.7031 250.822 19.1445 252.52 19.1445C254.202 19.1445 255.441 19.6852 256.236 20.7666C257.031 21.8408 257.439 23.5023 257.461 25.751V28.3291ZM255.474 25.6113C255.474 23.9284 255.237 22.7038 254.765 21.9375C254.292 21.1641 253.544 20.7773 252.52 20.7773C251.503 20.7773 250.761 21.1605 250.296 21.9268C249.83 22.693 249.59 23.8711 249.576 25.4609V28.6406C249.576 30.3307 249.82 31.5804 250.307 32.3896C250.801 33.1917 251.546 33.5928 252.541 33.5928C253.522 33.5928 254.249 33.2132 254.722 32.4541C255.201 31.695 255.452 30.499 255.474 28.8662V25.6113Z"
      fill="black"/>
  <path
      d="M84.6895 29.7471H86.8594V31.3691H84.6895V35H82.6914V31.3691H75.5693V30.1982L82.5732 19.3594H84.6895V29.7471ZM77.8252 29.7471H82.6914V22.0771L82.4551 22.5068L77.8252 29.7471ZM98.4609 28.3291C98.4609 30.6566 98.0635 32.3861 97.2686 33.5176C96.4736 34.6491 95.2311 35.2148 93.541 35.2148C91.8724 35.2148 90.637 34.6634 89.835 33.5605C89.0329 32.4505 88.6175 30.7962 88.5889 28.5977V25.9443C88.5889 23.6455 88.9863 21.9375 89.7812 20.8203C90.5762 19.7031 91.8223 19.1445 93.5195 19.1445C95.2025 19.1445 96.4414 19.6852 97.2363 20.7666C98.0312 21.8408 98.4395 23.5023 98.4609 25.751V28.3291ZM96.4736 25.6113C96.4736 23.9284 96.2373 22.7038 95.7646 21.9375C95.292 21.1641 94.5436 20.7773 93.5195 20.7773C92.5026 20.7773 91.7614 21.1605 91.2959 21.9268C90.8304 22.693 90.5905 23.8711 90.5762 25.4609V28.6406C90.5762 30.3307 90.8197 31.5804 91.3066 32.3896C91.8008 33.1917 92.5456 33.5928 93.541 33.5928C94.5221 33.5928 95.249 33.2132 95.7217 32.4541C96.2015 31.695 96.4521 30.499 96.4736 28.8662V25.6113Z"
      fill="black"/>
  <path
      d="M14.5479 165H4.2998V163.571L9.71387 157.556C10.516 156.646 11.0674 155.909 11.3682 155.343C11.6761 154.77 11.8301 154.179 11.8301 153.57C11.8301 152.754 11.583 152.084 11.0889 151.562C10.5947 151.039 9.93587 150.777 9.1123 150.777C8.12402 150.777 7.35417 151.06 6.80273 151.626C6.25846 152.185 5.98633 152.965 5.98633 153.968H3.99902C3.99902 152.528 4.46094 151.365 5.38477 150.477C6.31576 149.589 7.55827 149.145 9.1123 149.145C10.5661 149.145 11.7155 149.528 12.5605 150.294C13.4056 151.053 13.8281 152.066 13.8281 153.334C13.8281 154.874 12.847 156.707 10.8848 158.834L6.69531 163.378H14.5479V165ZM26.4609 158.329C26.4609 160.657 26.0635 162.386 25.2686 163.518C24.4736 164.649 23.2311 165.215 21.541 165.215C19.8724 165.215 18.637 164.663 17.835 163.561C17.0329 162.451 16.6175 160.796 16.5889 158.598V155.944C16.5889 153.646 16.9863 151.938 17.7812 150.82C18.5762 149.703 19.8223 149.145 21.5195 149.145C23.2025 149.145 24.4414 149.685 25.2363 150.767C26.0312 151.841 26.4395 153.502 26.4609 155.751V158.329ZM24.4736 155.611C24.4736 153.928 24.2373 152.704 23.7646 151.938C23.292 151.164 22.5436 150.777 21.5195 150.777C20.5026 150.777 19.7614 151.16 19.2959 151.927C18.8304 152.693 18.5905 153.871 18.5762 155.461V158.641C18.5762 160.331 18.8197 161.58 19.3066 162.39C19.8008 163.192 20.5456 163.593 21.541 163.593C22.5221 163.593 23.249 163.213 23.7217 162.454C24.2015 161.695 24.4521 160.499 24.4736 158.866V155.611Z"
      fill="black"/>
  <path
      d="M102.543 287.329C102.543 289.657 102.146 291.386 101.351 292.518C100.556 293.649 99.3132 294.215 97.623 294.215C95.9544 294.215 94.7191 293.663 93.917 292.561C93.1149 291.451 92.6995 289.796 92.6709 287.598V284.944C92.6709 282.646 93.0684 280.938 93.8633 279.82C94.6582 278.703 95.9043 278.145 97.6016 278.145C99.2845 278.145 100.523 278.685 101.318 279.767C102.113 280.841 102.521 282.502 102.543 284.751V287.329ZM100.556 284.611C100.556 282.928 100.319 281.704 99.8467 280.938C99.374 280.164 98.6257 279.777 97.6016 279.777C96.5846 279.777 95.8434 280.16 95.3779 280.927C94.9124 281.693 94.6725 282.871 94.6582 284.461V287.641C94.6582 289.331 94.9017 290.58 95.3887 291.39C95.8828 292.192 96.6276 292.593 97.623 292.593C98.6042 292.593 99.3311 292.213 99.8037 291.454C100.284 290.695 100.534 289.499 100.556 287.866V284.611Z"
      fill="black"/>
  <defs>
    <clipPath id="clip0">
      <rect width="270" height="242.8" fill="white" transform="translate(32 32)"/>
    </clipPath>
  </defs>
</svg>
